<svg xmlns="http://www.w3.org/2000/svg" xmlns:xlink="http://www.w3.org/1999/xlink" width="1080" zoomAndPan="magnify" viewBox="0 0 810 809.999993" height="1080" preserveAspectRatio="xMidYMid meet" version="1.0"><defs><g/></defs><g fill="#000000" fill-opacity="1"><g transform="translate(396.342771, 622.889365)"><g><path d="M -66.078125 49.6875 L -45.953125 -9.796875 L -30.953125 -6.59375 L -35.796875 37.96875 L -21.609375 -4.609375 L -6.34375 -1.359375 L -12.734375 61.0625 L -26.25 58.171875 L -17.9375 9.046875 L -31.875 49.609375 L -44.296875 46.96875 L -40.125 4.328125 L -53.53125 52.359375 Z M -66.078125 49.6875 "/></g></g></g><g fill="#000000" fill-opacity="1"><g transform="translate(349.502394, 613.603682)"><g><path d="M -25.140625 10.25 C -24.359375 7.75 -24.101562 5.554688 -24.375 3.671875 C -24.65625 1.785156 -25.378906 0.171875 -26.546875 -1.171875 C -27.722656 -2.523438 -29.226562 -3.617188 -31.0625 -4.453125 C -33.050781 -5.359375 -35.125 -5.90625 -37.28125 -6.09375 C -39.4375 -6.28125 -41.625 -6.21875 -43.84375 -5.90625 L -45.84375 -15.3125 C -42.988281 -16.132812 -39.847656 -16.441406 -36.421875 -16.234375 C -33.003906 -16.023438 -29.441406 -15.078125 -25.734375 -13.390625 C -20.765625 -11.128906 -17.050781 -8.242188 -14.59375 -4.734375 C -12.144531 -1.234375 -10.859375 2.632812 -10.734375 6.875 C -10.617188 11.113281 -11.585938 15.484375 -13.640625 19.984375 C -15.597656 24.273438 -18.191406 27.800781 -21.421875 30.5625 C -24.660156 33.332031 -28.332031 35.039062 -32.4375 35.6875 C -36.539062 36.332031 -40.875 35.617188 -45.4375 33.546875 C -49.59375 31.660156 -52.785156 29.140625 -55.015625 25.984375 C -57.253906 22.828125 -58.453125 19.195312 -58.609375 15.09375 C -58.765625 11 -57.785156 6.617188 -55.671875 1.953125 C -55.328125 1.210938 -54.941406 0.429688 -54.515625 -0.390625 C -54.085938 -1.222656 -53.691406 -1.953125 -53.328125 -2.578125 Z M -41.484375 24.875 C -39.160156 25.9375 -36.90625 25.957031 -34.71875 24.9375 C -32.539062 23.914062 -30.476562 21.644531 -28.53125 18.125 L -44.5 10.859375 C -45.90625 14.035156 -46.441406 16.851562 -46.109375 19.3125 C -45.785156 21.769531 -44.242188 23.625 -41.484375 24.875 Z M -41.484375 24.875 "/></g></g></g><g fill="#000000" fill-opacity="1"><g transform="translate(305.762757, 594.444077)"><g><path d="M -42.171875 21.96875 C -44.554688 22.65625 -46.941406 22.828125 -49.328125 22.484375 C -51.710938 22.148438 -53.882812 21.25 -55.84375 19.78125 C -59.125 17.320312 -61.179688 14.484375 -62.015625 11.265625 C -62.847656 8.054688 -62.617188 4.566406 -61.328125 0.796875 C -60.046875 -2.960938 -57.847656 -6.914062 -54.734375 -11.0625 C -51.773438 -15 -48.550781 -18.066406 -45.0625 -20.265625 C -41.582031 -22.472656 -38.039062 -23.601562 -34.4375 -23.65625 C -30.84375 -23.707031 -27.394531 -22.488281 -24.09375 -20 C -20.082031 -17 -18.097656 -13.070312 -18.140625 -8.21875 L -15.109375 -11.359375 L -5.03125 -3.78125 L -45.140625 49.609375 L -57.40625 42.25 Z M -27.328125 -9.5 C -29.328125 -11.007812 -31.613281 -11.273438 -34.1875 -10.296875 C -36.757812 -9.328125 -39.660156 -6.695312 -42.890625 -2.40625 C -45.265625 0.769531 -46.859375 3.410156 -47.671875 5.515625 C -48.492188 7.617188 -48.707031 9.347656 -48.3125 10.703125 C -47.925781 12.066406 -47.132812 13.195312 -45.9375 14.09375 C -44.664062 15.050781 -43.226562 15.515625 -41.625 15.484375 C -40.03125 15.453125 -38.300781 15.066406 -36.4375 14.328125 L -24.328125 -1.78125 C -24.191406 -3.457031 -24.34375 -4.925781 -24.78125 -6.1875 C -25.226562 -7.457031 -26.078125 -8.5625 -27.328125 -9.5 Z M -27.328125 -9.5 "/></g></g></g><g fill="#000000" fill-opacity="1"><g transform="translate(267.178379, 566.310629)"><g/></g></g><g fill="#000000" fill-opacity="1"><g transform="translate(235.561663, 530.524807)"><g><path d="M -44.96875 -17.1875 C -48.664062 -15.207031 -51.507812 -13.28125 -53.5 -11.40625 C -55.5 -9.539062 -56.835938 -7.71875 -57.515625 -5.9375 C -58.203125 -4.164062 -58.382812 -2.410156 -58.0625 -0.671875 C -57.75 1.054688 -57.128906 2.78125 -56.203125 4.5 L -54.71875 7.28125 L -18.59375 -12.078125 L -20.078125 -14.859375 C -21.046875 -16.660156 -22.210938 -18.15625 -23.578125 -19.34375 C -24.941406 -20.53125 -26.59375 -21.300781 -28.53125 -21.65625 C -30.476562 -22.007812 -32.796875 -21.835938 -35.484375 -21.140625 C -38.179688 -20.453125 -41.34375 -19.132812 -44.96875 -17.1875 Z M -52.203125 -30.671875 C -46.617188 -33.671875 -41.617188 -35.40625 -37.203125 -35.875 C -32.796875 -36.34375 -28.910156 -35.863281 -25.546875 -34.4375 C -22.179688 -33.007812 -19.234375 -30.921875 -16.703125 -28.171875 C -14.171875 -25.429688 -11.992188 -22.363281 -10.171875 -18.96875 L -2.21875 -4.125 L -57.1875 25.34375 L -64.625 11.453125 C -66.507812 7.941406 -67.96875 4.34375 -69 0.65625 C -70.039062 -3.019531 -70.285156 -6.679688 -69.734375 -10.328125 C -69.191406 -13.972656 -67.550781 -17.515625 -64.8125 -20.953125 C -62.082031 -24.390625 -57.878906 -27.628906 -52.203125 -30.671875 Z M -52.203125 -30.671875 "/></g></g></g><g fill="#000000" fill-opacity="1"><g transform="translate(212.397672, 488.767511)"><g><path d="M -24.0625 -12.5625 C -21.644531 -13.59375 -19.800781 -14.820312 -18.53125 -16.25 C -17.269531 -17.675781 -16.503906 -19.269531 -16.234375 -21.03125 C -15.972656 -22.800781 -16.113281 -24.65625 -16.65625 -26.59375 C -17.25 -28.695312 -18.171875 -30.628906 -19.421875 -32.390625 C -20.679688 -34.160156 -22.140625 -35.789062 -23.796875 -37.28125 L -17.90625 -44.875 C -15.445312 -43.238281 -13.191406 -41.050781 -11.140625 -38.3125 C -9.085938 -35.570312 -7.507812 -32.238281 -6.40625 -28.3125 C -4.914062 -23.0625 -4.71875 -18.363281 -5.8125 -14.21875 C -6.90625 -10.070312 -9.03125 -6.585938 -12.1875 -3.765625 C -15.34375 -0.941406 -19.304688 1.140625 -24.078125 2.484375 C -28.617188 3.765625 -32.988281 4.0625 -37.1875 3.375 C -41.382812 2.6875 -45.054688 0.988281 -48.203125 -1.71875 C -51.347656 -4.425781 -53.597656 -8.191406 -54.953125 -13.015625 C -56.191406 -17.398438 -56.328125 -21.46875 -55.359375 -25.21875 C -54.390625 -28.96875 -52.394531 -32.226562 -49.375 -35 C -46.363281 -37.769531 -42.390625 -39.847656 -37.453125 -41.234375 C -36.671875 -41.453125 -35.820312 -41.664062 -34.90625 -41.875 C -34 -42.082031 -33.1875 -42.25 -32.46875 -42.375 Z M -45.78125 -15.609375 C -45.09375 -13.148438 -43.648438 -11.414062 -41.453125 -10.40625 C -39.265625 -9.394531 -36.203125 -9.285156 -32.265625 -10.078125 L -37.03125 -26.953125 C -40.363281 -25.972656 -42.859375 -24.566406 -44.515625 -22.734375 C -46.179688 -20.898438 -46.601562 -18.523438 -45.78125 -15.609375 Z M -45.78125 -15.609375 "/></g></g></g><g fill="#000000" fill-opacity="1"><g transform="translate(198.774511, 443.000064)"><g><path d="M -50.6875 -48.53125 L -2.046875 -35.390625 L -1.078125 -18.6875 L -47.875 0.15625 L -48.75 -15.15625 L -12.453125 -26.59375 L -49.859375 -34.15625 Z M -50.6875 -48.53125 "/></g></g></g><g fill="#000000" fill-opacity="1"><g transform="translate(195.332049, 395.372412)"><g><path d="M -16.546875 -21.515625 C -13.921875 -21.429688 -11.734375 -21.773438 -9.984375 -22.546875 C -8.234375 -23.316406 -6.863281 -24.441406 -5.875 -25.921875 C -4.894531 -27.398438 -4.242188 -29.132812 -3.921875 -31.125 C -3.578125 -33.28125 -3.597656 -35.421875 -3.984375 -37.546875 C -4.378906 -39.679688 -5.019531 -41.78125 -5.90625 -43.84375 L 2.640625 -48.25 C 4.191406 -45.726562 5.316406 -42.789062 6.015625 -39.4375 C 6.722656 -36.082031 6.753906 -32.394531 6.109375 -28.375 C 5.242188 -22.976562 3.441406 -18.628906 0.703125 -15.328125 C -2.023438 -12.035156 -5.414062 -9.773438 -9.46875 -8.546875 C -13.53125 -7.316406 -18.003906 -7.09375 -22.890625 -7.875 C -27.546875 -8.625 -31.632812 -10.191406 -35.15625 -12.578125 C -38.675781 -14.960938 -41.289062 -18.046875 -43 -21.828125 C -44.71875 -25.617188 -45.175781 -29.988281 -44.375 -34.9375 C -43.65625 -39.4375 -42.066406 -43.179688 -39.609375 -46.171875 C -37.160156 -49.171875 -33.984375 -51.289062 -30.078125 -52.53125 C -26.171875 -53.769531 -21.6875 -53.984375 -16.625 -53.171875 C -15.820312 -53.046875 -14.960938 -52.882812 -14.046875 -52.6875 C -13.128906 -52.488281 -12.328125 -52.289062 -11.640625 -52.09375 Z M -34.96875 -33.421875 C -35.375 -30.898438 -34.796875 -28.722656 -33.234375 -26.890625 C -31.671875 -25.054688 -28.9375 -23.660156 -25.03125 -22.703125 L -22.25 -40.03125 C -25.6875 -40.550781 -28.546875 -40.328125 -30.828125 -39.359375 C -33.109375 -38.390625 -34.488281 -36.410156 -34.96875 -33.421875 Z M -34.96875 -33.421875 "/></g></g></g><g fill="#000000" fill-opacity="1"><g transform="translate(202.232024, 348.12164)"><g><path d="M -50.625 -53.59375 L -2.5 -34.578125 C -0.71875 -33.867188 0.753906 -33.867188 1.921875 -34.578125 C 3.097656 -35.296875 4.039062 -36.546875 4.75 -38.328125 C 5.195312 -39.472656 5.5 -40.628906 5.65625 -41.796875 C 5.8125 -42.960938 5.890625 -44.070312 5.890625 -45.125 L 15.96875 -44.828125 C 16.164062 -43.015625 16.132812 -40.929688 15.875 -38.578125 C 15.625 -36.222656 14.941406 -33.640625 13.828125 -30.828125 C 11.710938 -25.460938 8.613281 -22.132812 4.53125 -20.84375 C 0.457031 -19.5625 -4.171875 -19.945312 -9.359375 -22 L -46.8125 -36.796875 L -51.984375 -23.6875 L -61.03125 -27.265625 Z M -50.625 -53.59375 "/></g></g></g><g fill="#000000" fill-opacity="1"><g transform="translate(219.150303, 303.467221)"><g><path d="M -25.8125 -49.984375 C -23.0625 -54.066406 -19.851562 -56.953125 -16.1875 -58.640625 C -12.519531 -60.328125 -8.597656 -60.863281 -4.421875 -60.25 C -0.253906 -59.644531 3.941406 -57.914062 8.171875 -55.0625 C 12.578125 -52.09375 15.847656 -48.773438 17.984375 -45.109375 C 20.117188 -41.441406 21.066406 -37.601562 20.828125 -33.59375 C 20.585938 -29.59375 19.101562 -25.566406 16.375 -21.515625 C 13.644531 -17.484375 10.476562 -14.59375 6.875 -12.84375 C 3.269531 -11.101562 -0.625 -10.535156 -4.8125 -11.140625 C -9.007812 -11.753906 -13.316406 -13.550781 -17.734375 -16.53125 C -21.941406 -19.363281 -25.109375 -22.609375 -27.234375 -26.265625 C -29.359375 -29.921875 -30.332031 -33.78125 -30.15625 -37.84375 C -29.988281 -41.90625 -28.539062 -45.953125 -25.8125 -49.984375 Z M -17.109375 -44.125 C -18.742188 -41.71875 -18.960938 -39.265625 -17.765625 -36.765625 C -16.566406 -34.273438 -13.816406 -31.582031 -9.515625 -28.6875 C -5.140625 -25.726562 -1.582031 -24.164062 1.15625 -24 C 3.90625 -23.832031 6.097656 -24.953125 7.734375 -27.359375 C 9.359375 -29.773438 9.578125 -32.222656 8.390625 -34.703125 C 7.203125 -37.179688 4.394531 -39.914062 -0.03125 -42.90625 C -4.300781 -45.789062 -7.804688 -47.316406 -10.546875 -47.484375 C -13.296875 -47.660156 -15.484375 -46.539062 -17.109375 -44.125 Z M -17.109375 -44.125 "/></g></g></g><g fill="#000000" fill-opacity="1"><g transform="translate(245.292207, 263.506669)"><g><path d="M -10.25 -58.359375 C -7.226562 -61.222656 -4.082031 -62.785156 -0.8125 -63.046875 C 2.457031 -63.304688 5.820312 -62.472656 9.28125 -60.546875 C 12.738281 -58.617188 16.253906 -55.773438 19.828125 -52.015625 C 23.222656 -48.453125 25.726562 -44.773438 27.34375 -40.984375 C 28.957031 -37.203125 29.535156 -33.566406 29.078125 -30.078125 C 28.617188 -26.597656 26.976562 -23.519531 24.15625 -20.84375 C 20.789062 -17.632812 16.898438 -16.238281 12.484375 -16.65625 L 27.59375 -0.765625 L 18.296875 10.109375 L -28.359375 -38.984375 L -19.21875 -47.671875 L -15.078125 -44.21875 C -15.378906 -47.363281 -15.054688 -50.117188 -14.109375 -52.484375 C -13.171875 -54.847656 -11.882812 -56.804688 -10.25 -58.359375 Z M -6.234375 -47.703125 C -7.429688 -46.566406 -8.144531 -45.207031 -8.375 -43.625 C -8.601562 -42.039062 -8.507812 -40.269531 -8.09375 -38.3125 L 5.796875 -23.703125 C 7.523438 -23.316406 9.019531 -23.25 10.28125 -23.5 C 11.550781 -23.75 12.734375 -24.394531 13.828125 -25.4375 C 15.640625 -27.164062 16.265625 -29.347656 15.703125 -31.984375 C 15.148438 -34.617188 13.03125 -37.878906 9.34375 -41.765625 C 6.601562 -44.640625 4.28125 -46.664062 2.375 -47.84375 C 0.46875 -49.03125 -1.171875 -49.5625 -2.546875 -49.4375 C -3.921875 -49.3125 -5.148438 -48.734375 -6.234375 -47.703125 Z M -6.234375 -47.703125 "/></g></g></g><g fill="#000000" fill-opacity="1"><g transform="translate(279.42979, 230.117006)"><g><path d="M 5.75 -26.53125 C 7.375 -24.46875 9.039062 -23.015625 10.75 -22.171875 C 12.46875 -21.335938 14.210938 -21.023438 15.984375 -21.234375 C 17.765625 -21.441406 19.515625 -22.0625 21.234375 -23.09375 C 23.109375 -24.226562 24.726562 -25.628906 26.09375 -27.296875 C 27.46875 -28.972656 28.648438 -30.8125 29.640625 -32.8125 L 38.546875 -29.15625 C 37.617188 -26.332031 36.101562 -23.566406 34 -20.859375 C 31.894531 -18.160156 29.097656 -15.757812 25.609375 -13.65625 C 20.941406 -10.84375 16.460938 -9.410156 12.171875 -9.359375 C 7.890625 -9.316406 3.96875 -10.445312 0.40625 -12.75 C -3.15625 -15.050781 -6.210938 -18.320312 -8.765625 -22.5625 C -11.203125 -26.59375 -12.644531 -30.722656 -13.09375 -34.953125 C -13.550781 -39.191406 -12.882812 -43.1875 -11.09375 -46.9375 C -9.3125 -50.6875 -6.28125 -53.859375 -2 -56.453125 C 1.90625 -58.804688 5.789062 -60.015625 9.65625 -60.078125 C 13.53125 -60.140625 17.203125 -59.078125 20.671875 -56.890625 C 24.140625 -54.703125 27.203125 -51.410156 29.859375 -47.015625 C 30.273438 -46.328125 30.703125 -45.570312 31.140625 -44.75 C 31.578125 -43.925781 31.953125 -43.1875 32.265625 -42.53125 Z M 2.921875 -48.28125 C 0.742188 -46.957031 -0.535156 -45.109375 -0.921875 -42.734375 C -1.316406 -40.359375 -0.617188 -37.367188 1.171875 -33.765625 L 16.203125 -42.828125 C 14.367188 -45.796875 12.347656 -47.835938 10.140625 -48.953125 C 7.929688 -50.066406 5.523438 -49.84375 2.921875 -48.28125 Z M 2.921875 -48.28125 "/></g></g></g><g fill="#000000" fill-opacity="1"><g transform="translate(319.959562, 204.866603)"><g><path d="M 6.390625 -2.15625 L 3.328125 -11.203125 L 9.296875 -13.21875 L 0.09375 -40.5 L -5.875 -38.484375 L -8.90625 -47.4375 L 7.34375 -52.921875 L 13.265625 -43.5625 C 13.554688 -48.007812 14.640625 -51.609375 16.515625 -54.359375 C 18.390625 -57.109375 21.148438 -59.097656 24.796875 -60.328125 C 26.328125 -60.847656 27.726562 -61.1875 29 -61.34375 C 30.269531 -61.507812 31.503906 -61.5625 32.703125 -61.5 L 32.375 -48.984375 C 31.46875 -48.929688 30.582031 -48.820312 29.71875 -48.65625 C 28.863281 -48.488281 27.9375 -48.238281 26.9375 -47.90625 C 23.988281 -46.90625 21.804688 -44.816406 20.390625 -41.640625 C 18.972656 -38.472656 18.304688 -34.832031 18.390625 -30.71875 L 22.765625 -17.765625 L 31.71875 -20.796875 L 34.78125 -11.75 Z M 28.140625 -38.859375 L 23.6875 -52.078125 L 23.75 -58.46875 L 32.703125 -61.5 L 36.578125 -41.703125 Z M 28.140625 -38.859375 "/></g></g></g><g fill="#000000" fill-opacity="1"><g transform="translate(364.977741, 188.941541)"><g/></g></g><g fill="#000000" fill-opacity="1"><g transform="translate(412.369739, 183.089821)"><g><path d="M 17.796875 -6.609375 C 17.992188 -8.429688 18.625 -10.046875 19.6875 -11.453125 C 20.75 -12.867188 22.085938 -13.945312 23.703125 -14.6875 C 25.316406 -15.4375 27.035156 -15.710938 28.859375 -15.515625 C 30.710938 -15.304688 32.335938 -14.664062 33.734375 -13.59375 C 35.140625 -12.519531 36.207031 -11.179688 36.9375 -9.578125 C 37.664062 -7.972656 37.929688 -6.257812 37.734375 -4.4375 C 37.535156 -2.65625 36.90625 -1.054688 35.84375 0.359375 C 34.78125 1.785156 33.445312 2.875 31.84375 3.625 C 30.25 4.375 28.523438 4.644531 26.671875 4.4375 C 24.847656 4.238281 23.226562 3.597656 21.8125 2.515625 C 20.394531 1.441406 19.320312 0.0976562 18.59375 -1.515625 C 17.863281 -3.128906 17.597656 -4.828125 17.796875 -6.609375 Z M 17.796875 -6.609375 "/></g></g></g><g fill="#000000" fill-opacity="1"><g transform="translate(459.90946, 187.58634)"><g/></g></g><g fill="#000000" fill-opacity="1"><g transform="translate(505.363877, 202.219863)"><g><path d="M 47.78125 -31.71875 L 39.25 -17.578125 L 57.96875 -6.28125 L 52.5 2.78125 L 33.78125 -8.515625 L 21 12.671875 L 8.328125 5.015625 L 40.546875 -48.390625 L 75.640625 -27.203125 L 68.890625 -18.984375 Z M 47.78125 -31.71875 "/></g></g></g><g fill="#000000" fill-opacity="1"><g transform="translate(546.597936, 226.303037)"><g><path d="M 52.484375 -21.640625 L 42.15625 -10.78125 L 57.8125 4.09375 L 50.671875 11.609375 L 35.015625 -3.265625 L 24.046875 8.265625 L 42.9375 26.21875 L 35.65625 33.890625 L 6.0625 5.765625 L 49.03125 -39.4375 L 78.578125 -11.34375 L 70.265625 -4.75 Z M 52.484375 -21.640625 "/></g></g></g><g fill="#000000" fill-opacity="1"><g transform="translate(581.674701, 258.704617)"><g/></g></g><g fill="#000000" fill-opacity="1"><g transform="translate(608.946649, 297.902668)"><g><path d="M 56.71875 2.4375 L 42.78125 7.953125 L 50.71875 28.0625 L 41.078125 31.875 L 33.140625 11.765625 L 18.34375 17.609375 L 27.921875 41.859375 L 18.078125 45.75 L 3.078125 7.78125 L 61.078125 -15.140625 L 76.0625 22.78125 L 65.734375 25.25 Z M 56.71875 2.4375 "/></g></g></g><g fill="#000000" fill-opacity="1"><g transform="translate(627.132765, 342.055939)"><g><path d="M 1 6.21875 L 48.1875 -1.359375 L 50.15625 10.90625 L 44.84375 12.75 C 47.5625 14.476562 49.679688 16.421875 51.203125 18.578125 C 52.734375 20.734375 53.738281 23.304688 54.21875 26.296875 C 54.863281 30.328125 54.140625 33.691406 52.046875 36.390625 C 49.960938 39.097656 46.6875 40.8125 42.21875 41.53125 L 7.5625 47.09375 L 5.3125 33.0625 L 35.921875 28.140625 C 37.847656 27.835938 39.359375 27.457031 40.453125 27 C 41.554688 26.550781 42.296875 25.953125 42.671875 25.203125 C 43.046875 24.453125 43.140625 23.503906 42.953125 22.359375 C 42.796875 21.378906 42.429688 20.457031 41.859375 19.59375 C 41.285156 18.726562 40.523438 17.914062 39.578125 17.15625 C 38.640625 16.394531 37.535156 15.660156 36.265625 14.953125 L 3.25 20.25 Z M 1 6.21875 "/></g></g></g><g fill="#000000" fill-opacity="1"><g transform="translate(635.378677, 389.090508)"><g><path d="M 52.53125 51.859375 L 41.90625 54.578125 C 41.351562 52.867188 40.988281 50.878906 40.8125 48.609375 C 40.644531 46.347656 40.644531 43.722656 40.8125 40.734375 C 39.363281 43.640625 37.640625 45.820312 35.640625 47.28125 C 33.640625 48.75 31.101562 49.394531 28.03125 49.21875 C 24.9375 49.039062 22.226562 48.054688 19.90625 46.265625 C 17.59375 44.472656 15.835938 42.023438 14.640625 38.921875 C 13.441406 35.828125 12.960938 32.210938 13.203125 28.078125 C 13.265625 27.054688 13.363281 26.101562 13.5 25.21875 C 13.644531 24.332031 13.832031 23.457031 14.0625 22.59375 C 13.8125 22.0625 13.441406 21.644531 12.953125 21.34375 C 12.460938 21.050781 11.945312 20.890625 11.40625 20.859375 C 10.65625 20.804688 9.960938 21.070312 9.328125 21.65625 C 8.703125 22.238281 8.320312 23.664062 8.1875 25.9375 L 7.734375 33.75 C 7.515625 37.46875 6.726562 40.644531 5.375 43.28125 C 4.019531 45.925781 2.265625 47.9375 0.109375 49.3125 C -2.046875 50.6875 -4.457031 51.300781 -7.125 51.15625 C -12 50.875 -15.71875 48.507812 -18.28125 44.0625 C -20.851562 39.613281 -21.894531 33.164062 -21.40625 24.71875 C -21.050781 18.601562 -20.15625 13.910156 -18.71875 10.640625 C -17.28125 7.378906 -15.375 5.164062 -13 4 C -10.632812 2.84375 -7.882812 2.351562 -4.75 2.53125 L -5.484375 15.09375 C -6.847656 15.007812 -7.988281 15.222656 -8.90625 15.734375 C -9.820312 16.242188 -10.535156 17.269531 -11.046875 18.8125 C -11.566406 20.363281 -11.910156 22.632812 -12.078125 25.625 C -12.253906 28.65625 -12.148438 30.972656 -11.765625 32.578125 C -11.378906 34.191406 -10.785156 35.3125 -9.984375 35.9375 C -9.191406 36.570312 -8.285156 36.921875 -7.265625 36.984375 C -5.867188 37.066406 -4.703125 36.578125 -3.765625 35.515625 C -2.835938 34.453125 -2.304688 32.726562 -2.171875 30.34375 L -1.71875 22.75 C -1.425781 17.59375 -0.265625 13.90625 1.765625 11.6875 C 3.804688 9.46875 6.101562 8.429688 8.65625 8.578125 C 10.425781 8.679688 12.078125 9.25 13.609375 10.28125 C 15.140625 11.3125 16.394531 12.710938 17.375 14.484375 C 19.164062 11.515625 21.195312 9.4375 23.46875 8.25 C 25.75 7.0625 28.4375 6.554688 31.53125 6.734375 C 35.125 6.941406 38.160156 8.035156 40.640625 10.015625 C 43.128906 11.992188 44.984375 14.628906 46.203125 17.921875 C 47.429688 21.222656 47.925781 24.941406 47.6875 29.078125 C 47.414062 32.648438 47.476562 35.769531 47.875 38.4375 C 48.28125 41.101562 48.90625 43.507812 49.75 45.65625 C 50.601562 47.8125 51.53125 49.878906 52.53125 51.859375 Z M 38.4375 28.90625 C 38.570312 26.664062 37.96875 24.84375 36.625 23.4375 C 35.28125 22.039062 33.367188 21.273438 30.890625 21.140625 C 28.242188 20.984375 26.175781 21.535156 24.6875 22.796875 C 23.195312 24.054688 22.382812 25.78125 22.25 27.96875 C 22.113281 30.332031 22.710938 32.175781 24.046875 33.5 C 25.390625 34.832031 27.441406 35.578125 30.203125 35.734375 C 32.859375 35.890625 34.859375 35.390625 36.203125 34.234375 C 37.554688 33.078125 38.300781 31.300781 38.4375 28.90625 Z M 38.4375 28.90625 "/></g></g></g><g fill="#000000" fill-opacity="1"><g transform="translate(633.297143, 436.797026)"><g><path d="M 36.359375 47.15625 L -0.28125 36.8125 L -3.578125 48.5 L -12.9375 45.859375 L -2.09375 7.4375 L 7.265625 10.078125 L 3.578125 23.125 L 30.84375 30.828125 L 34.40625 18.21875 L 43.78125 20.859375 Z M 62.765625 45.671875 C 62.097656 48.035156 60.816406 49.757812 58.921875 50.84375 C 57.023438 51.9375 54.976562 52.171875 52.78125 51.546875 C 50.582031 50.929688 48.953125 49.660156 47.890625 47.734375 C 46.828125 45.804688 46.628906 43.660156 47.296875 41.296875 C 47.972656 38.898438 49.265625 37.15625 51.171875 36.0625 C 53.085938 34.976562 55.144531 34.742188 57.34375 35.359375 C 59.539062 35.984375 61.160156 37.257812 62.203125 39.1875 C 63.253906 41.113281 63.441406 43.273438 62.765625 45.671875 Z M 62.765625 45.671875 "/></g></g></g><g fill="#000000" fill-opacity="1"><g transform="translate(620.985986, 482.934682)"><g><path d="M -2.96875 5.546875 L 39.15625 28.140625 L 33.28125 39.09375 L 27.921875 37.328125 C 29.035156 40.347656 29.546875 43.175781 29.453125 45.8125 C 29.359375 48.457031 28.597656 51.113281 27.171875 53.78125 C 25.234375 57.382812 22.613281 59.628906 19.3125 60.515625 C 16.019531 61.398438 12.375 60.769531 8.375 58.625 L -22.546875 42.046875 L -15.828125 29.515625 L 11.484375 44.171875 C 13.210938 45.085938 14.648438 45.695312 15.796875 46 C 16.941406 46.3125 17.890625 46.285156 18.640625 45.921875 C 19.398438 45.554688 20.054688 44.859375 20.609375 43.828125 C 21.078125 42.960938 21.34375 42.003906 21.40625 40.953125 C 21.46875 39.910156 21.351562 38.804688 21.0625 37.640625 C 20.769531 36.472656 20.34375 35.21875 19.78125 33.875 L -9.6875 18.078125 Z M -2.96875 5.546875 "/></g></g></g><g fill="#000000" fill-opacity="1"><g transform="translate(599.023409, 525.336199)"><g><path d="M 2.859375 26.984375 C 0.660156 25.546875 -1.378906 24.695312 -3.265625 24.4375 C -5.160156 24.1875 -6.914062 24.429688 -8.53125 25.171875 C -10.144531 25.921875 -11.609375 27.054688 -12.921875 28.578125 C -14.347656 30.234375 -15.453125 32.070312 -16.234375 34.09375 C -17.015625 36.125 -17.5625 38.242188 -17.875 40.453125 L -27.484375 39.75 C -27.472656 36.789062 -26.890625 33.695312 -25.734375 30.46875 C -24.585938 27.238281 -22.6875 24.082031 -20.03125 21 C -16.476562 16.851562 -12.671875 14.085938 -8.609375 12.703125 C -4.554688 11.316406 -0.484375 11.160156 3.609375 12.234375 C 7.703125 13.304688 11.628906 15.453125 15.390625 18.671875 C 18.972656 21.742188 21.640625 25.21875 23.390625 29.09375 C 25.140625 32.976562 25.753906 36.976562 25.234375 41.09375 C 24.722656 45.21875 22.835938 49.179688 19.578125 52.984375 C 16.597656 56.453125 13.28125 58.816406 9.625 60.078125 C 5.96875 61.347656 2.15625 61.488281 -1.8125 60.5 C -5.789062 59.507812 -9.726562 57.347656 -13.625 54.015625 C -14.238281 53.484375 -14.882812 52.894531 -15.5625 52.25 C -16.25 51.601562 -16.832031 51.015625 -17.3125 50.484375 Z M 12.34375 46.765625 C 14 44.828125 14.640625 42.671875 14.265625 40.296875 C 13.898438 37.921875 12.300781 35.300781 9.46875 32.4375 L -1.96875 45.75 C 0.6875 48 3.238281 49.304688 5.6875 49.671875 C 8.144531 50.035156 10.363281 49.066406 12.34375 46.765625 Z M 12.34375 46.765625 "/></g></g></g><g fill="#000000" fill-opacity="1"><g transform="translate(568.441137, 562.009927)"><g><path d="M -3.03125 26.984375 C -4.863281 25.097656 -6.675781 23.820312 -8.46875 23.15625 C -10.257812 22.5 -12.019531 22.359375 -13.75 22.734375 C -15.488281 23.117188 -17.164062 23.914062 -18.78125 25.125 C -20.53125 26.445312 -22.003906 28.007812 -23.203125 29.8125 C -24.398438 31.613281 -25.394531 33.5625 -26.1875 35.65625 L -35.390625 32.90625 C -34.753906 30.007812 -33.523438 27.109375 -31.703125 24.203125 C -29.890625 21.304688 -27.351562 18.632812 -24.09375 16.1875 C -19.726562 12.90625 -15.414062 11.023438 -11.15625 10.546875 C -6.894531 10.078125 -2.878906 10.800781 0.890625 12.71875 C 4.660156 14.644531 8.035156 17.585938 11.015625 21.546875 C 13.847656 25.316406 15.695312 29.285156 16.5625 33.453125 C 17.4375 37.617188 17.175781 41.65625 15.78125 45.5625 C 14.394531 49.476562 11.695312 52.941406 7.6875 55.953125 C 4.039062 58.691406 0.300781 60.285156 -3.53125 60.734375 C -7.375 61.191406 -11.128906 60.507812 -14.796875 58.6875 C -18.472656 56.875 -21.851562 53.914062 -24.9375 49.8125 C -25.425781 49.164062 -25.929688 48.453125 -26.453125 47.671875 C -26.972656 46.898438 -27.421875 46.203125 -27.796875 45.578125 Z M 1.96875 48.328125 C 4.007812 46.796875 5.101562 44.828125 5.25 42.421875 C 5.40625 40.023438 4.40625 37.125 2.25 33.71875 L -11.78125 44.265625 C -9.664062 47.023438 -7.445312 48.847656 -5.125 49.734375 C -2.8125 50.617188 -0.445312 50.148438 1.96875 48.328125 Z M 1.96875 48.328125 "/></g></g></g><g fill="#000000" fill-opacity="1"><g transform="translate(530.675544, 591.233355)"><g><path d="M -6.140625 2.796875 L -2.1875 11.484375 L -7.921875 14.09375 L 4.015625 40.3125 L 9.75 37.703125 L 13.65625 46.296875 L -1.953125 53.390625 L -8.78125 44.6875 C -8.632812 49.144531 -9.351562 52.835938 -10.9375 55.765625 C -12.519531 58.691406 -15.0625 60.953125 -18.5625 62.546875 C -20.03125 63.210938 -21.390625 63.6875 -22.640625 63.96875 C -23.890625 64.257812 -25.117188 64.429688 -26.328125 64.484375 L -27.25 52.015625 C -26.363281 51.867188 -25.5 51.671875 -24.65625 51.421875 C -23.8125 51.171875 -22.910156 50.828125 -21.953125 50.390625 C -19.117188 49.097656 -17.15625 46.800781 -16.0625 43.5 C -14.976562 40.207031 -14.6875 36.515625 -15.1875 32.421875 L -20.859375 19.984375 L -29.46875 23.90625 L -33.421875 15.21875 Z M -24.078125 41.515625 L -18.296875 54.21875 L -17.71875 60.578125 L -26.328125 64.484375 L -32.1875 45.203125 Z M -24.078125 41.515625 "/></g></g></g><g fill="#000000" fill-opacity="1"><g transform="translate(487.500638, 611.63363)"><g><path d="M -14.828125 11.84375 C -14.441406 13.632812 -14.53125 15.363281 -15.09375 17.03125 C -15.65625 18.707031 -16.585938 20.148438 -17.890625 21.359375 C -19.203125 22.578125 -20.753906 23.378906 -22.546875 23.765625 C -24.367188 24.148438 -26.113281 24.050781 -27.78125 23.46875 C -29.445312 22.894531 -30.878906 21.957031 -32.078125 20.65625 C -33.273438 19.363281 -34.066406 17.820312 -34.453125 16.03125 C -34.816406 14.28125 -34.71875 12.5625 -34.15625 10.875 C -33.601562 9.1875 -32.679688 7.734375 -31.390625 6.515625 C -30.097656 5.304688 -28.539062 4.507812 -26.71875 4.125 C -24.925781 3.738281 -23.1875 3.832031 -21.5 4.40625 C -19.820312 4.988281 -18.378906 5.9375 -17.171875 7.25 C -15.972656 8.5625 -15.191406 10.09375 -14.828125 11.84375 Z M -14.828125 11.84375 "/></g></g></g></svg>